<mxfile host="app.diagrams.net" agent="Mozilla/5.0 (Windows NT 10.0; Win64; x64) AppleWebKit/537.36 (KHTML, like Gecko) Chrome/137.0.0.0 Safari/537.36" version="27.2.0">
  <diagram name="Pagina-1" id="VLB6mdgr9eSRPnj4kyDW">
    <mxGraphModel dx="1426" dy="3081" grid="1" gridSize="10" guides="1" tooltips="1" connect="1" arrows="1" fold="1" page="1" pageScale="1" pageWidth="827" pageHeight="1169" math="0" shadow="0">
      <root>
        <mxCell id="0" />
        <mxCell id="1" parent="0" />
        <mxCell id="3PtTnQS0pGwGlVBPgccs-7" style="edgeStyle=orthogonalEdgeStyle;rounded=0;orthogonalLoop=1;jettySize=auto;html=1;" parent="1" source="3PtTnQS0pGwGlVBPgccs-5" target="3PtTnQS0pGwGlVBPgccs-6" edge="1">
          <mxGeometry relative="1" as="geometry" />
        </mxCell>
        <mxCell id="3PtTnQS0pGwGlVBPgccs-5" value="iostream&lt;div&gt;string&lt;/div&gt;&lt;div&gt;variant&lt;/div&gt;&lt;div&gt;vector&lt;/div&gt;&lt;div&gt;list&lt;/div&gt;&lt;div&gt;memory&lt;/div&gt;&lt;div&gt;map&lt;/div&gt;&lt;div&gt;unordered map&lt;/div&gt;" style="rounded=1;whiteSpace=wrap;html=1;" parent="1" vertex="1">
          <mxGeometry x="169" y="-2320" width="151" height="130" as="geometry" />
        </mxCell>
        <mxCell id="3PtTnQS0pGwGlVBPgccs-6" value="Datatype" style="rhombus;whiteSpace=wrap;html=1;" parent="1" vertex="1">
          <mxGeometry x="359" y="-2302.5" width="95" height="95" as="geometry" />
        </mxCell>
        <mxCell id="3PtTnQS0pGwGlVBPgccs-13" value="" style="edgeStyle=orthogonalEdgeStyle;rounded=0;orthogonalLoop=1;jettySize=auto;html=1;exitX=0.5;exitY=1;exitDx=0;exitDy=0;entryX=0.5;entryY=0;entryDx=0;entryDy=0;" parent="1" source="3PtTnQS0pGwGlVBPgccs-6" target="3PtTnQS0pGwGlVBPgccs-12" edge="1">
          <mxGeometry relative="1" as="geometry">
            <mxPoint x="407" y="-2207" as="sourcePoint" />
            <mxPoint x="154" y="-2020" as="targetPoint" />
          </mxGeometry>
        </mxCell>
        <mxCell id="3PtTnQS0pGwGlVBPgccs-42" style="edgeStyle=orthogonalEdgeStyle;rounded=0;orthogonalLoop=1;jettySize=auto;html=1;exitX=0.5;exitY=1;exitDx=0;exitDy=0;entryX=0.5;entryY=0;entryDx=0;entryDy=0;" parent="1" source="3PtTnQS0pGwGlVBPgccs-12" target="3PtTnQS0pGwGlVBPgccs-18" edge="1">
          <mxGeometry relative="1" as="geometry" />
        </mxCell>
        <mxCell id="3PtTnQS0pGwGlVBPgccs-12" value="Classes" style="rhombus;whiteSpace=wrap;html=1;" parent="1" vertex="1">
          <mxGeometry x="359" y="-2180" width="95" height="95" as="geometry" />
        </mxCell>
        <mxCell id="3PtTnQS0pGwGlVBPgccs-23" style="edgeStyle=orthogonalEdgeStyle;rounded=0;orthogonalLoop=1;jettySize=auto;html=1;exitX=0.5;exitY=1;exitDx=0;exitDy=0;" parent="1" source="3PtTnQS0pGwGlVBPgccs-18" target="3PtTnQS0pGwGlVBPgccs-22" edge="1">
          <mxGeometry relative="1" as="geometry" />
        </mxCell>
        <mxCell id="3PtTnQS0pGwGlVBPgccs-18" value="Classes_utils" style="rhombus;whiteSpace=wrap;html=1;" parent="1" vertex="1">
          <mxGeometry x="359" y="-2060" width="95" height="95" as="geometry" />
        </mxCell>
        <mxCell id="3PtTnQS0pGwGlVBPgccs-24" style="edgeStyle=orthogonalEdgeStyle;rounded=0;orthogonalLoop=1;jettySize=auto;html=1;entryX=0;entryY=0.5;entryDx=0;entryDy=0;" parent="1" source="3PtTnQS0pGwGlVBPgccs-20" target="3PtTnQS0pGwGlVBPgccs-22" edge="1">
          <mxGeometry relative="1" as="geometry" />
        </mxCell>
        <mxCell id="3PtTnQS0pGwGlVBPgccs-20" value="Tao/PEGTL" style="rounded=1;whiteSpace=wrap;html=1;" parent="1" vertex="1">
          <mxGeometry x="208" y="-1931.25" width="90" height="77.5" as="geometry" />
        </mxCell>
        <mxCell id="3PtTnQS0pGwGlVBPgccs-26" style="edgeStyle=orthogonalEdgeStyle;rounded=0;orthogonalLoop=1;jettySize=auto;html=1;exitX=0.5;exitY=1;exitDx=0;exitDy=0;entryX=0.5;entryY=0;entryDx=0;entryDy=0;" parent="1" source="3PtTnQS0pGwGlVBPgccs-22" target="3PtTnQS0pGwGlVBPgccs-25" edge="1">
          <mxGeometry relative="1" as="geometry" />
        </mxCell>
        <mxCell id="3PtTnQS0pGwGlVBPgccs-22" value="parser" style="rhombus;whiteSpace=wrap;html=1;" parent="1" vertex="1">
          <mxGeometry x="359" y="-1940" width="95" height="95" as="geometry" />
        </mxCell>
        <mxCell id="3PtTnQS0pGwGlVBPgccs-32" style="edgeStyle=orthogonalEdgeStyle;rounded=0;orthogonalLoop=1;jettySize=auto;html=1;exitX=0.5;exitY=1;exitDx=0;exitDy=0;" parent="1" source="3PtTnQS0pGwGlVBPgccs-25" target="3PtTnQS0pGwGlVBPgccs-27" edge="1">
          <mxGeometry relative="1" as="geometry" />
        </mxCell>
        <mxCell id="3PtTnQS0pGwGlVBPgccs-25" value="parser_action" style="rhombus;whiteSpace=wrap;html=1;" parent="1" vertex="1">
          <mxGeometry x="359" y="-1820" width="95" height="95" as="geometry" />
        </mxCell>
        <mxCell id="3PtTnQS0pGwGlVBPgccs-31" style="edgeStyle=orthogonalEdgeStyle;rounded=0;orthogonalLoop=1;jettySize=auto;html=1;exitX=0.5;exitY=1;exitDx=0;exitDy=0;" parent="1" source="3PtTnQS0pGwGlVBPgccs-27" target="3PtTnQS0pGwGlVBPgccs-28" edge="1">
          <mxGeometry relative="1" as="geometry" />
        </mxCell>
        <mxCell id="3PtTnQS0pGwGlVBPgccs-27" value="parser_action" style="rhombus;whiteSpace=wrap;html=1;" parent="1" vertex="1">
          <mxGeometry x="359" y="-1700" width="95" height="95" as="geometry" />
        </mxCell>
        <mxCell id="3PtTnQS0pGwGlVBPgccs-38" value="" style="edgeStyle=orthogonalEdgeStyle;rounded=0;orthogonalLoop=1;jettySize=auto;html=1;" parent="1" source="3PtTnQS0pGwGlVBPgccs-28" target="3PtTnQS0pGwGlVBPgccs-37" edge="1">
          <mxGeometry relative="1" as="geometry" />
        </mxCell>
        <mxCell id="3PtTnQS0pGwGlVBPgccs-28" value="network" style="rhombus;whiteSpace=wrap;html=1;" parent="1" vertex="1">
          <mxGeometry x="359" y="-1580" width="95" height="95" as="geometry" />
        </mxCell>
        <mxCell id="3PtTnQS0pGwGlVBPgccs-36" style="edgeStyle=orthogonalEdgeStyle;rounded=0;orthogonalLoop=1;jettySize=auto;html=1;entryX=0;entryY=0.5;entryDx=0;entryDy=0;" parent="1" source="3PtTnQS0pGwGlVBPgccs-33" target="3PtTnQS0pGwGlVBPgccs-28" edge="1">
          <mxGeometry relative="1" as="geometry" />
        </mxCell>
        <mxCell id="3PtTnQS0pGwGlVBPgccs-33" value="snap7" style="rounded=1;whiteSpace=wrap;html=1;" parent="1" vertex="1">
          <mxGeometry x="193" y="-1562" width="120" height="60" as="geometry" />
        </mxCell>
        <mxCell id="3PtTnQS0pGwGlVBPgccs-35" style="edgeStyle=orthogonalEdgeStyle;rounded=0;orthogonalLoop=1;jettySize=auto;html=1;entryX=1;entryY=0.5;entryDx=0;entryDy=0;" parent="1" source="3PtTnQS0pGwGlVBPgccs-34" target="3PtTnQS0pGwGlVBPgccs-28" edge="1">
          <mxGeometry relative="1" as="geometry" />
        </mxCell>
        <mxCell id="3PtTnQS0pGwGlVBPgccs-34" value="pylib" style="rhombus;whiteSpace=wrap;html=1;" parent="1" vertex="1">
          <mxGeometry x="529" y="-1580" width="95" height="95" as="geometry" />
        </mxCell>
        <mxCell id="3PtTnQS0pGwGlVBPgccs-39" style="edgeStyle=orthogonalEdgeStyle;rounded=0;orthogonalLoop=1;jettySize=auto;html=1;entryX=0.5;entryY=0;entryDx=0;entryDy=0;" parent="1" source="3PtTnQS0pGwGlVBPgccs-37" target="3PtTnQS0pGwGlVBPgccs-40" edge="1">
          <mxGeometry relative="1" as="geometry">
            <mxPoint x="406.5" y="-1360" as="targetPoint" />
          </mxGeometry>
        </mxCell>
        <mxCell id="3PtTnQS0pGwGlVBPgccs-37" value="GUI" style="rhombus;whiteSpace=wrap;html=1;" parent="1" vertex="1">
          <mxGeometry x="366.5" y="-1460" width="80" height="80" as="geometry" />
        </mxCell>
        <mxCell id="3PtTnQS0pGwGlVBPgccs-40" value="Gui_utils" style="rhombus;whiteSpace=wrap;html=1;" parent="1" vertex="1">
          <mxGeometry x="366.5" y="-1350" width="80" height="80" as="geometry" />
        </mxCell>
        <mxCell id="3PtTnQS0pGwGlVBPgccs-43" value="pybind" style="rounded=1;whiteSpace=wrap;html=1;" parent="1" vertex="1">
          <mxGeometry x="660" y="-1562.5" width="120" height="60" as="geometry" />
        </mxCell>
        <mxCell id="3PtTnQS0pGwGlVBPgccs-44" style="edgeStyle=orthogonalEdgeStyle;rounded=0;orthogonalLoop=1;jettySize=auto;html=1;entryX=0.937;entryY=0.495;entryDx=0;entryDy=0;entryPerimeter=0;" parent="1" source="3PtTnQS0pGwGlVBPgccs-43" target="3PtTnQS0pGwGlVBPgccs-34" edge="1">
          <mxGeometry relative="1" as="geometry" />
        </mxCell>
      </root>
    </mxGraphModel>
  </diagram>
</mxfile>
